<svg id="Group_2268" data-name="Group 2268" xmlns="http://www.w3.org/2000/svg" xmlns:xlink="http://www.w3.org/1999/xlink" width="192" height="63.928" viewBox="0 0 192 63.928">
  <defs>
    <clipPath id="clip-path">
      <rect id="Rectangle_2199" data-name="Rectangle 2199" width="192" height="63.928" fill="#14143b"/>
    </clipPath>
  </defs>
  <path id="Path_480" data-name="Path 480" d="M8.378,79.9,5.455,88.337h-.11L2.423,79.9H.659L4.573,90.487H6.227L10.142,79.9Z" transform="translate(-0.253 -30.75)" fill="#14143b"/>
  <g id="Group_2275" data-name="Group 2275">
    <g id="Group_2274" data-name="Group 2274" clip-path="url(#clip-path)">
      <path id="Path_481" data-name="Path 481" d="M24.334,90.621a4.942,4.942,0,0,1-2.636-.679,4.478,4.478,0,0,1-1.7-1.9,6.432,6.432,0,0,1-.6-2.85,6.569,6.569,0,0,1,.6-2.87,4.669,4.669,0,0,1,1.668-1.943,4.473,4.473,0,0,1,2.5-.7,5.031,5.031,0,0,1,1.633.276,4.075,4.075,0,0,1,1.468.893,4.309,4.309,0,0,1,1.054,1.63,6.931,6.931,0,0,1,.392,2.5v.689h-8.16V84.253h6.506a3.506,3.506,0,0,0-.355-1.6A2.734,2.734,0,0,0,25.7,81.544a2.831,2.831,0,0,0-1.533-.407,2.919,2.919,0,0,0-1.678.479A3.2,3.2,0,0,0,21.4,82.861a3.642,3.642,0,0,0-.379,1.64v.938a4.488,4.488,0,0,0,.417,2.029A2.936,2.936,0,0,0,22.6,88.729a3.4,3.4,0,0,0,1.73.431,3.488,3.488,0,0,0,1.161-.183,2.433,2.433,0,0,0,.9-.551,2.47,2.47,0,0,0,.586-.92l1.571.441a3.448,3.448,0,0,1-.834,1.4,4,4,0,0,1-1.447.937,5.317,5.317,0,0,1-1.937.334" transform="translate(-7.466 -30.663)" fill="#14143b"/>
      <path id="Path_482" data-name="Path 482" d="M39.842,90.384V79.8h1.571v1.6h.11a2.543,2.543,0,0,1,1.048-1.275,3.079,3.079,0,0,1,1.709-.49q.179,0,.448.007t.407.021v1.654c-.055-.014-.18-.036-.375-.066a4.122,4.122,0,0,0-.617-.045,2.888,2.888,0,0,0-1.375.32,2.446,2.446,0,0,0-.951.883,2.371,2.371,0,0,0-.348,1.278v6.7Z" transform="translate(-15.333 -30.646)" fill="#14143b"/>
      <path id="Path_483" data-name="Path 483" d="M57.972,79.693H52.486V78.314h5.486Zm-3.887-3.915h1.626v10.09a2.065,2.065,0,0,0,.2,1.03,1,1,0,0,0,.523.455,2.023,2.023,0,0,0,.679.114,2.544,2.544,0,0,0,.442-.031c.114-.02.206-.038.276-.052l.33,1.462a3.614,3.614,0,0,1-.462.127,3.566,3.566,0,0,1-.751.065,3.245,3.245,0,0,1-1.347-.3,2.659,2.659,0,0,1-1.089-.9,2.582,2.582,0,0,1-.431-1.531Z" transform="translate(-20.199 -29.163)" fill="#14143b"/>
      <path id="Path_484" data-name="Path 484" d="M66.655,90.384V79.8h1.571v1.6h.11a2.543,2.543,0,0,1,1.048-1.275,3.079,3.079,0,0,1,1.709-.49q.179,0,.448.007t.407.021v1.654c-.055-.014-.18-.036-.375-.066a4.122,4.122,0,0,0-.617-.045,2.888,2.888,0,0,0-1.375.32,2.446,2.446,0,0,0-.951.883,2.371,2.371,0,0,0-.348,1.278v6.7Z" transform="translate(-25.652 -30.646)" fill="#14143b"/>
      <path id="Path_485" data-name="Path 485" d="M83.111,90.621a4.475,4.475,0,0,1-4.194-2.591,6.425,6.425,0,0,1-.6-2.867,6.5,6.5,0,0,1,.6-2.888,4.64,4.64,0,0,1,8.388,0,6.5,6.5,0,0,1,.6,2.888,6.425,6.425,0,0,1-.6,2.867,4.473,4.473,0,0,1-4.194,2.591m0-1.461A2.8,2.8,0,0,0,84.9,88.6a3.291,3.291,0,0,0,1.04-1.468,5.62,5.62,0,0,0,.338-1.971,5.681,5.681,0,0,0-.338-1.978A3.336,3.336,0,0,0,84.9,81.7a3.125,3.125,0,0,0-3.584,0,3.337,3.337,0,0,0-1.041,1.482,5.682,5.682,0,0,0-.338,1.978,5.62,5.62,0,0,0,.338,1.971A3.292,3.292,0,0,0,81.319,88.6a2.8,2.8,0,0,0,1.792.558" transform="translate(-30.139 -30.663)" fill="#14143b"/>
      <path id="Path_486" data-name="Path 486" d="M105.876,86.159V79.9H107.5V90.487h-1.626V88.7h-.11a3.453,3.453,0,0,1-1.157,1.368,3.329,3.329,0,0,1-1.986.562,3.512,3.512,0,0,1-1.764-.437,3,3,0,0,1-1.213-1.324,4.991,4.991,0,0,1-.442-2.236V79.9h1.627v6.617a2.576,2.576,0,0,0,.651,1.847,2.19,2.19,0,0,0,1.665.69,2.785,2.785,0,0,0,1.236-.311,2.721,2.721,0,0,0,1.062-.951,2.871,2.871,0,0,0,.43-1.633" transform="translate(-38.179 -30.75)" fill="#14143b"/>
      <path id="Path_487" data-name="Path 487" d="M120.677,90.487,117.452,79.9h1.709l2.288,8.105h.11L123.82,79.9h1.737l2.232,8.078h.11l2.288-8.078h1.71l-3.225,10.586h-1.6l-2.315-8.133h-.165l-2.316,8.133Z" transform="translate(-45.201 -30.75)" fill="#14143b"/>
      <path id="Path_488" data-name="Path 488" d="M148.8,88.5a4.13,4.13,0,0,1-2.336-.672,4.486,4.486,0,0,1-1.585-1.9,7.654,7.654,0,0,1,0-5.807,4.453,4.453,0,0,1,1.592-1.9,4.2,4.2,0,0,1,2.357-.669,3.33,3.33,0,0,1,1.637.341,2.919,2.919,0,0,1,.923.772q.32.431.5.706h.138v-5.21h1.627V88.279h-1.572V86.652h-.193q-.179.29-.51.728a2.966,2.966,0,0,1-.944.779,3.363,3.363,0,0,1-1.633.341m.221-1.461a2.651,2.651,0,0,0,1.654-.514A3.167,3.167,0,0,0,151.7,85.1a5.868,5.868,0,0,0,.351-2.112,5.76,5.76,0,0,0-.344-2.078,3.043,3.043,0,0,0-1.02-1.392,3.052,3.052,0,0,0-3.388.028,3.162,3.162,0,0,0-1.027,1.427,5.644,5.644,0,0,0-.341,2.016,5.758,5.758,0,0,0,.348,2.05,3.292,3.292,0,0,0,1.034,1.461,2.664,2.664,0,0,0,1.706.541" transform="translate(-55.535 -28.542)" fill="#14143b"/>
      <path id="Path_489" data-name="Path 489" d="M173.581,88.28V74.165h1.626v5.21h.138q.18-.275.5-.706a2.913,2.913,0,0,1,.924-.772,3.326,3.326,0,0,1,1.636-.341,4.207,4.207,0,0,1,2.358.669,4.448,4.448,0,0,1,1.591,1.9,7.645,7.645,0,0,1,0,5.806,4.484,4.484,0,0,1-1.585,1.9,4.129,4.129,0,0,1-2.336.672,3.364,3.364,0,0,1-1.633-.341,2.966,2.966,0,0,1-.944-.779q-.33-.437-.51-.727h-.193V88.28Zm1.6-5.293a5.857,5.857,0,0,0,.352,2.112,3.167,3.167,0,0,0,1.027,1.427,2.939,2.939,0,0,0,3.36-.028,3.3,3.3,0,0,0,1.034-1.461,5.758,5.758,0,0,0,.348-2.05,5.644,5.644,0,0,0-.341-2.016,3.163,3.163,0,0,0-1.027-1.427,3.051,3.051,0,0,0-3.387-.028,3.04,3.04,0,0,0-1.02,1.392,5.742,5.742,0,0,0-.345,2.078" transform="translate(-66.802 -28.542)" fill="#14143b"/>
      <path id="Path_490" data-name="Path 490" d="M198.2,90.621a4.942,4.942,0,0,1-2.636-.679,4.478,4.478,0,0,1-1.7-1.9,6.432,6.432,0,0,1-.6-2.85,6.568,6.568,0,0,1,.6-2.87,4.669,4.669,0,0,1,1.668-1.943,4.473,4.473,0,0,1,2.5-.7,5.031,5.031,0,0,1,1.633.276,4.075,4.075,0,0,1,1.468.893,4.31,4.31,0,0,1,1.054,1.63,6.931,6.931,0,0,1,.392,2.5v.689h-8.16V84.253h6.506a3.506,3.506,0,0,0-.355-1.6,2.734,2.734,0,0,0-1.007-1.109,2.831,2.831,0,0,0-1.533-.407,2.919,2.919,0,0,0-1.678.479,3.2,3.2,0,0,0-1.086,1.244,3.642,3.642,0,0,0-.379,1.64v.938a4.488,4.488,0,0,0,.417,2.029,2.936,2.936,0,0,0,1.161,1.262,3.4,3.4,0,0,0,1.73.431,3.488,3.488,0,0,0,1.161-.183,2.433,2.433,0,0,0,.9-.551,2.47,2.47,0,0,0,.586-.92l1.571.441a3.448,3.448,0,0,1-.834,1.4,4,4,0,0,1-1.447.937,5.317,5.317,0,0,1-1.937.334" transform="translate(-74.376 -30.663)" fill="#14143b"/>
      <path id="Path_491" data-name="Path 491" d="M221.306,79.9l-3.914,10.586h-1.654L211.823,79.9h1.764l2.922,8.436h.11l2.923-8.436Z" transform="translate(-81.519 -30.75)" fill="#14143b"/>
      <path id="Path_492" data-name="Path 492" d="M235.5,90.621a4.942,4.942,0,0,1-2.636-.679,4.478,4.478,0,0,1-1.7-1.9,6.432,6.432,0,0,1-.6-2.85,6.568,6.568,0,0,1,.6-2.87,4.669,4.669,0,0,1,1.668-1.943,4.472,4.472,0,0,1,2.5-.7,5.031,5.031,0,0,1,1.633.276,4.075,4.075,0,0,1,1.468.893,4.309,4.309,0,0,1,1.054,1.63,6.931,6.931,0,0,1,.392,2.5v.689h-8.16V84.253h6.506a3.506,3.506,0,0,0-.355-1.6,2.734,2.734,0,0,0-1.007-1.109,2.831,2.831,0,0,0-1.533-.407,2.922,2.922,0,0,0-1.679.479,3.2,3.2,0,0,0-1.085,1.244,3.642,3.642,0,0,0-.379,1.64v.938a4.488,4.488,0,0,0,.417,2.029,2.936,2.936,0,0,0,1.161,1.262,3.4,3.4,0,0,0,1.73.431,3.488,3.488,0,0,0,1.161-.183,2.433,2.433,0,0,0,.9-.551,2.47,2.47,0,0,0,.586-.92l1.571.441a3.449,3.449,0,0,1-.834,1.4,4,4,0,0,1-1.447.937,5.317,5.317,0,0,1-1.936.334" transform="translate(-88.731 -30.663)" fill="#14143b"/>
      <path id="Path_493" data-name="Path 493" d="M251.625,75.653a1.146,1.146,0,0,1-.817-.324,1.059,1.059,0,0,1,0-1.558,1.192,1.192,0,0,1,1.633,0,1.059,1.059,0,0,1,0,1.558,1.144,1.144,0,0,1-.816.324m-.827,1.764h1.626V88H250.8Z" transform="translate(-96.391 -28.266)" fill="#14143b"/>
      <rect id="Rectangle_2198" data-name="Rectangle 2198" width="1.626" height="14.115" transform="translate(159.787 45.622)" fill="#14143b"/>
      <path id="Path_494" data-name="Path 494" d="M269.117,75.653a1.145,1.145,0,0,1-.817-.324,1.059,1.059,0,0,1,0-1.558,1.192,1.192,0,0,1,1.633,0,1.059,1.059,0,0,1,0,1.558,1.144,1.144,0,0,1-.816.324m-.827,1.764h1.626V88H268.29Z" transform="translate(-103.123 -28.266)" fill="#14143b"/>
      <path id="Path_495" data-name="Path 495" d="M281.205,94.591a6.092,6.092,0,0,1-2.026-.3,4.358,4.358,0,0,1-1.41-.786,4.309,4.309,0,0,1-.892-1.038l1.3-.909q.22.289.558.665a2.891,2.891,0,0,0,.927.655,3.636,3.636,0,0,0,1.547.279,3.447,3.447,0,0,0,2.116-.621,2.262,2.262,0,0,0,.834-1.943V88.444h-.138q-.179.29-.506.714a2.9,2.9,0,0,1-.938.751,3.488,3.488,0,0,1-1.644.327,4.4,4.4,0,0,1-2.3-.607,4.229,4.229,0,0,1-1.6-1.764,6.132,6.132,0,0,1-.59-2.812,6.569,6.569,0,0,1,.572-2.836,4.446,4.446,0,0,1,1.592-1.875,4.223,4.223,0,0,1,2.357-.665,3.366,3.366,0,0,1,1.643.341,2.966,2.966,0,0,1,.938.771q.327.431.506.707h.165V79.815h1.572V90.7a3.719,3.719,0,0,1-.618,2.223,3.587,3.587,0,0,1-1.653,1.261,6.317,6.317,0,0,1-2.306.4m-.055-5.817a2.923,2.923,0,0,0,1.654-.448,2.782,2.782,0,0,0,1.027-1.289,5.206,5.206,0,0,0,.351-2.013,5.5,5.5,0,0,0-.344-2.02,3.029,3.029,0,0,0-1.02-1.371,3.066,3.066,0,0,0-3.387.028,3.145,3.145,0,0,0-1.027,1.406,5.4,5.4,0,0,0-.341,1.957,5.088,5.088,0,0,0,.348,1.947,2.768,2.768,0,0,0,2.74,1.8" transform="translate(-106.385 -30.663)" fill="#14143b"/>
      <path id="Path_496" data-name="Path 496" d="M301.419,88.5a4.13,4.13,0,0,1-2.336-.672,4.486,4.486,0,0,1-1.585-1.9,7.654,7.654,0,0,1,0-5.807,4.453,4.453,0,0,1,1.592-1.9,4.2,4.2,0,0,1,2.357-.669,3.33,3.33,0,0,1,1.637.341,2.919,2.919,0,0,1,.923.772q.32.431.5.706h.138v-5.21h1.627V88.279H304.7V86.652h-.193q-.179.29-.51.728a2.966,2.966,0,0,1-.944.779,3.363,3.363,0,0,1-1.633.341m.221-1.461a2.651,2.651,0,0,0,1.654-.514A3.168,3.168,0,0,0,304.32,85.1a5.868,5.868,0,0,0,.351-2.112,5.761,5.761,0,0,0-.344-2.078,3.043,3.043,0,0,0-1.02-1.392,3.052,3.052,0,0,0-3.388.028,3.162,3.162,0,0,0-1.027,1.427,5.644,5.644,0,0,0-.341,2.016,5.758,5.758,0,0,0,.348,2.05,3.291,3.291,0,0,0,1.034,1.461,2.664,2.664,0,0,0,1.706.541" transform="translate(-114.27 -28.542)" fill="#14143b"/>
      <path id="Path_497" data-name="Path 497" d="M185.617,55.346H173.4V43.129" transform="translate(-66.732 -16.598)" fill="#e6544b"/>
      <path id="Path_498" data-name="Path 498" d="M12.5,38.493C8.733,27.669,2.928,10.046,0,1.1H9.464l5.91,20.028c1.1,3.869,1.464,5.439,2.458,9.465h.157c.993-3.818,1.359-5.752,2.614-9.622L26.564,1.1h8.942c-1.673,5.282-4.863,14.59-7.53,22.643L23.009,38.493Z" transform="translate(0 -0.425)" fill="#14143b"/>
      <path id="Path_499" data-name="Path 499" d="M67.01,26.721c.523,3.4,2.72,5.125,6.589,5.125,3.5,0,5.752-1.674,5.752-4.341,0-2.563-1.935-3.242-5.961-4.341l-2.562-.732c-8.21-2.353-11.557-5.386-11.557-11.243C59.271,4.549,64.866,0,73.39,0,81.6,0,86.934,3.974,87.351,11.243H78.776c-.576-2.876-2.3-4.445-5.7-4.445-3.137,0-4.863,1.517-4.863,3.765.052,2.51,1.726,3.294,4.654,4.131l2.876.837c8.472,2.353,12.446,4.915,12.446,11.556,0,7.164-5.961,11.661-14.956,11.661-9.046,0-14.642-4.5-15.008-12.027Z" transform="translate(-22.408)" fill="#14143b"/>
      <path id="Path_500" data-name="Path 500" d="M119.709,26.721c.523,3.4,2.72,5.125,6.589,5.125,3.5,0,5.752-1.674,5.752-4.341,0-2.563-1.935-3.242-5.961-4.341l-2.562-.732c-8.21-2.353-11.557-5.386-11.557-11.243,0-6.641,5.6-11.19,14.119-11.19,8.21,0,13.544,3.974,13.962,11.243h-8.575c-.576-2.876-2.3-4.445-5.7-4.445-3.137,0-4.863,1.517-4.863,3.765.052,2.51,1.726,3.294,4.654,4.131l2.876.837c8.472,2.353,12.446,4.915,12.446,11.556,0,7.164-5.961,11.661-14.956,11.661-9.046,0-14.642-4.5-15.008-12.027Z" transform="translate(-42.689)" fill="#14143b"/>
    </g>
  </g>
</svg>
