<svg xmlns="http://www.w3.org/2000/svg" xmlns:xlink="http://www.w3.org/1999/xlink" width="330.724" height="41.167" viewBox="0 0 330.724 41.167">
  <defs>
    <clipPath id="clip-path">
      <rect id="Rectangle_105" data-name="Rectangle 105" width="330.724" height="41.167" fill="none"/>
    </clipPath>
  </defs>
  <g id="Group_243" data-name="Group 243" transform="translate(0 0)">
    <path id="Path_222" data-name="Path 222" d="M215.509,42.211l-4.481,12.118h-1.894l-4.481-12.118h2.02l3.345,9.657h.127l3.345-9.657Z" transform="translate(-82.494 -17.96)" fill="#fff"/>
    <g id="Group_242" data-name="Group 242" transform="translate(0 0)">
      <g id="Group_241" data-name="Group 241" clip-path="url(#clip-path)">
        <path id="Path_223" data-name="Path 223" d="M230.736,53.755a5.325,5.325,0,0,1-2.84-.731,4.815,4.815,0,0,1-1.834-2.049,6.925,6.925,0,0,1-.643-3.071,7.068,7.068,0,0,1,.643-3.093,5.022,5.022,0,0,1,1.8-2.094,4.828,4.828,0,0,1,2.7-.754,5.412,5.412,0,0,1,1.76.3,4.384,4.384,0,0,1,1.581.961,4.654,4.654,0,0,1,1.136,1.757,7.477,7.477,0,0,1,.423,2.688v.742h-8.791V46.893h7.009a3.774,3.774,0,0,0-.382-1.723,2.938,2.938,0,0,0-1.084-1.2,3.055,3.055,0,0,0-1.652-.438,3.142,3.142,0,0,0-1.808.516,3.435,3.435,0,0,0-1.169,1.34,3.927,3.927,0,0,0-.409,1.767v1.01a4.825,4.825,0,0,0,.45,2.187,3.156,3.156,0,0,0,1.251,1.359,3.653,3.653,0,0,0,1.863.464,3.764,3.764,0,0,0,1.251-.2,2.606,2.606,0,0,0,.97-.594,2.66,2.66,0,0,0,.631-.992l1.693.475a3.719,3.719,0,0,1-.9,1.511,4.3,4.3,0,0,1-1.56,1.01,5.73,5.73,0,0,1-2.086.36" transform="translate(-90.596 -16.865)" fill="#fff"/>
        <path id="Path_224" data-name="Path 224" d="M248.071,53.5V42.091h1.694v1.723h.118a2.744,2.744,0,0,1,1.129-1.374,3.33,3.33,0,0,1,1.842-.527q.193,0,.483.007t.438.023v1.782q-.089-.022-.4-.071a4.384,4.384,0,0,0-.664-.048,3.1,3.1,0,0,0-1.481.346,2.636,2.636,0,0,0-1.025.95,2.561,2.561,0,0,0-.375,1.377V53.5Z" transform="translate(-99.7 -16.845)" fill="#fff"/>
        <path id="Path_225" data-name="Path 225" d="M267.994,41.86h-5.911V40.375h5.911Zm-4.188-4.218h1.752V48.513a2.221,2.221,0,0,0,.218,1.11,1.078,1.078,0,0,0,.565.49,2.161,2.161,0,0,0,.732.123,2.7,2.7,0,0,0,.474-.033l.3-.056.356,1.574a4,4,0,0,1-.5.138,3.877,3.877,0,0,1-.81.071,3.514,3.514,0,0,1-1.452-.319,2.868,2.868,0,0,1-1.173-.973,2.78,2.78,0,0,1-.464-1.649Z" transform="translate(-105.331 -15.128)" fill="#fff"/>
        <path id="Path_226" data-name="Path 226" d="M277.784,53.5V42.091h1.693v1.723h.119a2.744,2.744,0,0,1,1.129-1.374,3.326,3.326,0,0,1,1.841-.527c.129,0,.29,0,.483.007s.34.013.439.023v1.782c-.059-.015-.195-.038-.405-.071a4.373,4.373,0,0,0-.665-.048,3.107,3.107,0,0,0-1.481.346,2.63,2.63,0,0,0-1.025.95,2.561,2.561,0,0,0-.375,1.377V53.5Z" transform="translate(-111.641 -16.845)" fill="#fff"/>
        <path id="Path_227" data-name="Path 227" d="M295.87,53.755a4.822,4.822,0,0,1-4.519-2.792,6.925,6.925,0,0,1-.65-3.089,7.009,7.009,0,0,1,.65-3.111,5,5,0,0,1,9.037,0,7.009,7.009,0,0,1,.65,3.111,6.925,6.925,0,0,1-.65,3.089,4.822,4.822,0,0,1-4.519,2.792m0-1.574a3.007,3.007,0,0,0,1.931-.6A3.558,3.558,0,0,0,298.923,50a6.415,6.415,0,0,0,0-4.255,3.6,3.6,0,0,0-1.121-1.6,3.367,3.367,0,0,0-3.862,0,3.593,3.593,0,0,0-1.12,1.6,6.4,6.4,0,0,0,0,4.255,3.547,3.547,0,0,0,1.12,1.581,3.011,3.011,0,0,0,1.931.6" transform="translate(-116.833 -16.865)" fill="#fff"/>
        <path id="Path_228" data-name="Path 228" d="M321.04,48.953V42.211h1.752V53.616H321.04v-1.93h-.119a3.721,3.721,0,0,1-1.248,1.474,3.583,3.583,0,0,1-2.138.605,3.786,3.786,0,0,1-1.9-.472,3.246,3.246,0,0,1-1.306-1.425,5.38,5.38,0,0,1-.475-2.41V42.211H315.6V49.34a2.777,2.777,0,0,0,.7,1.99,2.358,2.358,0,0,0,1.793.742,3.01,3.01,0,0,0,1.333-.334,2.943,2.943,0,0,0,1.144-1.025,3.1,3.1,0,0,0,.464-1.76" transform="translate(-126.137 -16.964)" fill="#fff"/>
        <path id="Path_229" data-name="Path 229" d="M337.547,53.617l-3.476-11.405h1.842l2.466,8.732h.118l2.435-8.732H342.8l2.407,8.7h.118l2.466-8.7h1.841l-3.476,11.405h-1.722l-2.495-8.762h-.179l-2.5,8.762Z" transform="translate(-134.263 -16.965)" fill="#fff"/>
        <path id="Path_230" data-name="Path 230" d="M368.666,51.3a4.443,4.443,0,0,1-2.516-.724,4.832,4.832,0,0,1-1.708-2.049,8.242,8.242,0,0,1,0-6.256,4.792,4.792,0,0,1,1.715-2.042,4.528,4.528,0,0,1,2.54-.72,3.593,3.593,0,0,1,1.764.367,3.156,3.156,0,0,1,.995.832q.345.464.538.761h.148V35.855h1.753V51.062H372.2V49.31h-.208q-.193.311-.549.783a3.21,3.21,0,0,1-1.017.839,3.618,3.618,0,0,1-1.761.368m.239-1.574a2.86,2.86,0,0,0,1.782-.553,3.42,3.42,0,0,0,1.107-1.537,6.3,6.3,0,0,0,.379-2.276,6.192,6.192,0,0,0-.371-2.239,3.284,3.284,0,0,0-1.1-1.5,3.287,3.287,0,0,0-3.65.03,3.409,3.409,0,0,0-1.106,1.537,6.083,6.083,0,0,0-.368,2.172,6.2,6.2,0,0,0,.375,2.209,3.548,3.548,0,0,0,1.115,1.574,2.87,2.87,0,0,0,1.837.583" transform="translate(-146.222 -14.41)" fill="#fff"/>
        <path id="Path_231" data-name="Path 231" d="M399.448,51.062V35.855H401.2v5.614h.148q.193-.3.538-.761a3.142,3.142,0,0,1,1-.831,3.584,3.584,0,0,1,1.763-.368,4.532,4.532,0,0,1,2.54.72A4.792,4.792,0,0,1,408.9,42.27a8.242,8.242,0,0,1,0,6.256,4.831,4.831,0,0,1-1.708,2.05,4.443,4.443,0,0,1-2.516.724,3.615,3.615,0,0,1-1.76-.368,3.2,3.2,0,0,1-1.017-.839q-.356-.472-.549-.784h-.208v1.752Zm1.722-5.7a6.286,6.286,0,0,0,.38,2.276,3.407,3.407,0,0,0,1.106,1.537,3.167,3.167,0,0,0,3.619-.029,3.554,3.554,0,0,0,1.114-1.575,6.2,6.2,0,0,0,.375-2.209,6.079,6.079,0,0,0-.368-2.172,3.411,3.411,0,0,0-1.106-1.537,3.287,3.287,0,0,0-3.65-.03,3.28,3.28,0,0,0-1.1,1.5,6.2,6.2,0,0,0-.371,2.239" transform="translate(-160.538 -14.41)" fill="#fff"/>
        <path id="Path_232" data-name="Path 232" d="M426.572,53.755a5.325,5.325,0,0,1-2.84-.731,4.815,4.815,0,0,1-1.834-2.049,6.925,6.925,0,0,1-.643-3.071,7.068,7.068,0,0,1,.643-3.093,5.022,5.022,0,0,1,1.8-2.094,4.828,4.828,0,0,1,2.7-.754,5.412,5.412,0,0,1,1.76.3,4.384,4.384,0,0,1,1.581.961,4.654,4.654,0,0,1,1.136,1.757,7.478,7.478,0,0,1,.423,2.688v.742H422.5V46.893h7.009a3.774,3.774,0,0,0-.382-1.723,2.938,2.938,0,0,0-1.084-1.2,3.055,3.055,0,0,0-1.652-.438,3.142,3.142,0,0,0-1.808.516,3.434,3.434,0,0,0-1.169,1.34,3.927,3.927,0,0,0-.409,1.767v1.01a4.826,4.826,0,0,0,.45,2.187,3.157,3.157,0,0,0,1.251,1.359,3.653,3.653,0,0,0,1.863.464,3.764,3.764,0,0,0,1.251-.2,2.606,2.606,0,0,0,.97-.594,2.661,2.661,0,0,0,.631-.992l1.693.475a3.72,3.72,0,0,1-.9,1.511,4.3,4.3,0,0,1-1.56,1.01,5.73,5.73,0,0,1-2.086.36" transform="translate(-169.302 -16.865)" fill="#fff"/>
        <path id="Path_233" data-name="Path 233" d="M452.039,42.211l-4.218,11.405H446.04l-4.218-11.405h1.9l3.148,9.089h.12l3.148-9.089Z" transform="translate(-177.568 -16.965)" fill="#fff"/>
        <path id="Path_234" data-name="Path 234" d="M467.905,53.755a5.33,5.33,0,0,1-2.841-.731,4.823,4.823,0,0,1-1.834-2.049,6.941,6.941,0,0,1-.642-3.071,7.085,7.085,0,0,1,.642-3.093,5.034,5.034,0,0,1,1.8-2.094,4.827,4.827,0,0,1,2.7-.754,5.413,5.413,0,0,1,1.761.3,4.384,4.384,0,0,1,1.581.961,4.652,4.652,0,0,1,1.135,1.757,7.45,7.45,0,0,1,.424,2.688v.742h-8.793V46.893h7.01a3.774,3.774,0,0,0-.382-1.723,2.954,2.954,0,0,0-1.084-1.2,3.059,3.059,0,0,0-1.653-.438,3.147,3.147,0,0,0-1.808.516,3.434,3.434,0,0,0-1.169,1.34,3.925,3.925,0,0,0-.408,1.767v1.01a4.842,4.842,0,0,0,.449,2.187,3.171,3.171,0,0,0,1.251,1.359,3.657,3.657,0,0,0,1.864.464,3.764,3.764,0,0,0,1.251-.2,2.6,2.6,0,0,0,.968-.594,2.663,2.663,0,0,0,.632-.992l1.693.475a3.733,3.733,0,0,1-.9,1.511,4.3,4.3,0,0,1-1.56,1.01,5.734,5.734,0,0,1-2.086.36" transform="translate(-185.915 -16.865)" fill="#fff"/>
        <path id="Path_235" data-name="Path 235" d="M485.894,37.436a1.234,1.234,0,0,1-.881-.349,1.144,1.144,0,0,1,0-1.678,1.284,1.284,0,0,1,1.76,0,1.142,1.142,0,0,1,0,1.678,1.233,1.233,0,0,1-.879.349m-.892,1.9h1.752V50.742H485Z" transform="translate(-194.779 -14.09)" fill="#fff"/>
        <rect id="Rectangle_104" data-name="Rectangle 104" width="1.752" height="15.207" transform="translate(296.019 21.445)" fill="#fff"/>
        <path id="Path_236" data-name="Path 236" d="M505.276,37.436a1.233,1.233,0,0,1-.88-.349,1.142,1.142,0,0,1,0-1.678,1.284,1.284,0,0,1,1.76,0,1.144,1.144,0,0,1,0,1.678,1.233,1.233,0,0,1-.88.349m-.891,1.9h1.752V50.742h-1.752Z" transform="translate(-202.569 -14.09)" fill="#fff"/>
        <path id="Path_237" data-name="Path 237" d="M518.56,58.032a6.569,6.569,0,0,1-2.184-.323,4.585,4.585,0,0,1-2.48-1.964l1.4-.98q.236.311.6.716a3.091,3.091,0,0,0,1,.706,3.927,3.927,0,0,0,1.668.3,3.715,3.715,0,0,0,2.279-.669,2.436,2.436,0,0,0,.9-2.094V51.408h-.148q-.193.311-.545.769a3.1,3.1,0,0,1-1.01.809,3.759,3.759,0,0,1-1.772.353,4.739,4.739,0,0,1-2.476-.653,4.546,4.546,0,0,1-1.73-1.9,6.608,6.608,0,0,1-.635-3.029,7.079,7.079,0,0,1,.617-3.056,4.784,4.784,0,0,1,1.715-2.02,4.549,4.549,0,0,1,2.539-.717,3.627,3.627,0,0,1,1.771.368,3.2,3.2,0,0,1,1.01.831c.236.309.417.563.547.761h.178V42.111h1.693V53.844a4.007,4.007,0,0,1-.664,2.395,3.866,3.866,0,0,1-1.782,1.359,6.809,6.809,0,0,1-2.483.434m-.06-6.267a3.151,3.151,0,0,0,1.782-.483,3.006,3.006,0,0,0,1.107-1.389,5.605,5.605,0,0,0,.379-2.168,5.915,5.915,0,0,0-.371-2.176,3.274,3.274,0,0,0-1.1-1.477,3.306,3.306,0,0,0-3.65.029,3.4,3.4,0,0,0-1.106,1.515,5.8,5.8,0,0,0-.368,2.109,5.467,5.467,0,0,0,.374,2.1,2.985,2.985,0,0,0,2.952,1.942" transform="translate(-206.344 -16.865)" fill="#fff"/>
        <path id="Path_238" data-name="Path 238" d="M540.965,51.3a4.441,4.441,0,0,1-2.516-.724,4.829,4.829,0,0,1-1.708-2.049,8.243,8.243,0,0,1,0-6.256,4.793,4.793,0,0,1,1.715-2.042,4.528,4.528,0,0,1,2.54-.72,3.6,3.6,0,0,1,1.764.367,3.158,3.158,0,0,1,.994.832q.345.464.538.761h.148V35.855h1.752V51.062H544.5V49.31h-.208q-.193.311-.549.783a3.2,3.2,0,0,1-1.017.839,3.615,3.615,0,0,1-1.76.368m.238-1.574a2.859,2.859,0,0,0,1.782-.553,3.422,3.422,0,0,0,1.107-1.537,6.313,6.313,0,0,0,.379-2.276,6.192,6.192,0,0,0-.371-2.239,3.285,3.285,0,0,0-1.1-1.5,3.287,3.287,0,0,0-3.65.03,3.409,3.409,0,0,0-1.106,1.537,6.081,6.081,0,0,0-.368,2.172,6.2,6.2,0,0,0,.374,2.209,3.553,3.553,0,0,0,1.115,1.574,2.872,2.872,0,0,0,1.837.583" transform="translate(-215.468 -14.41)" fill="#fff"/>
        <path id="Path_239" data-name="Path 239" d="M182.478,53.3H170.6V41.421" transform="translate(-68.564 -16.647)" fill="#e6544b"/>
        <path id="Path_240" data-name="Path 240" d="M11.938,36.8C8.342,26.46,2.8,9.627,0,1.085H9.041l5.645,19.131c1.049,3.7,1.4,5.2,2.348,9.041h.15c.949-3.646,1.3-5.494,2.5-9.19L25.375,1.085h8.541c-1.6,5.045-4.645,13.936-7.193,21.629L21.978,36.8Z" transform="translate(0 -0.436)" fill="#fff"/>
        <path id="Path_241" data-name="Path 241" d="M65.595,25.525c.5,3.246,2.6,4.895,6.294,4.895,3.346,0,5.495-1.6,5.495-4.145,0-2.448-1.849-3.1-5.695-4.146l-2.447-.7C61.4,19.18,58.2,16.283,58.2,10.689,58.2,4.345,63.547,0,71.689,0c7.842,0,12.938,3.8,13.336,10.739H76.834c-.55-2.747-2.2-4.246-5.445-4.246-3,0-4.645,1.449-4.645,3.6.05,2.4,1.648,3.147,4.446,3.946l2.747.8c8.092,2.248,11.888,4.7,11.888,11.039,0,6.843-5.695,11.139-14.286,11.139-8.641,0-13.986-4.3-14.336-11.488Z" transform="translate(-22.99 0)" fill="#fff"/>
        <path id="Path_242" data-name="Path 242" d="M117.37,25.525c.5,3.246,2.6,4.895,6.294,4.895,3.346,0,5.495-1.6,5.495-4.145,0-2.448-1.849-3.1-5.695-4.146l-2.447-.7c-7.842-2.248-11.039-5.145-11.039-10.739C109.977,4.345,115.322,0,123.464,0,131.306,0,136.4,3.8,136.8,10.739h-8.192c-.55-2.747-2.2-4.246-5.445-4.246-3,0-4.645,1.449-4.645,3.6.05,2.4,1.648,3.147,4.445,3.946l2.748.8c8.092,2.248,11.888,4.7,11.888,11.039,0,6.843-5.695,11.139-14.286,11.139-8.641,0-13.986-4.3-14.336-11.488Z" transform="translate(-43.798 0)" fill="#fff"/>
      </g>
    </g>
  </g>
</svg>
